<?xml version="1.0" encoding="utf-8"?>
<!-- Generator: Adobe Illustrator 23.1.0, SVG Export Plug-In . SVG Version: 6.00 Build 0)  -->
<svg version="1.1" id="katman_1" xmlns="http://www.w3.org/2000/svg" xmlns:xlink="http://www.w3.org/1999/xlink" x="0px" y="0px"
	 viewBox="0 0 5831.9 1144.1" style="enable-background:new 0 0 5831.9 1144.1;" xml:space="preserve">
<style type="text/css">
	.st0{fill:#FFFFFF;}
</style>
<g>
	<polygon class="st0" points="506.5,178.6 349.4,449 397,450.6 503,265 584.6,410.9 282.3,917.3 81.9,917.3 49.2,966.3 314.2,966.3 
		638.3,411.7 	"/>
	<polygon class="st0" points="846.8,780.7 795.5,783 871.8,919.1 701,919.1 571.9,704.1 662.6,547.6 704.4,621.4 754,619.6 
		664.4,458 516.8,707.1 671.9,966.3 950.3,966.3 	"/>
	<polygon class="st0" points="358.3,966.9 625.1,966.9 492.6,747.3 	"/>
</g>
<g>
	<path class="st0" d="M1207.9,844.2c-45,0-81.6-12.8-105.7-37.1c-19.5-19.6-30.2-46.2-31.9-78.9h84c4.5,33.8,26.8,54.3,59.9,54.3
		c37.8,0,59.7-25.9,60.1-71.1V413h82.2v298.3C1356.4,790.8,1296.7,844.2,1207.9,844.2z"/>
	<path class="st0" d="M2088.3,844.2c-121.7,0-200.3-85.8-200.3-218.7c0-132.9,78.6-218.7,200.3-218.7
		c100.7,0,170.6,55.5,185.1,145.7h-84.8c-9.7-46.3-46.2-74.6-97.1-74.6h-1.4c-71.7,0-116.3,56.6-116.3,147.7
		c0,92.5,43.5,147.7,116.2,147.7c50.4,0,86.4-25.8,98-69.7l85.1,0.5C2260.6,773.7,2199.3,844.2,2088.3,844.2z"/>
	<polygon class="st0" points="2614.9,838.1 2497.1,653.4 2440.9,722.9 2440.9,838.1 2357.6,838.1 2357.6,413 2440.9,413 
		2440.9,603.6 2463.1,603.6 2613,413 2709.9,413 2559.3,600.8 2714.9,838.1 	"/>
	<path class="st0" d="M4230.9,844.2c-121.7,0-200.2-85.8-200.2-218.7c0-132.9,78.6-218.7,200.2-218.7
		c100.7,0,170.6,55.5,185.1,145.7h-84.8c-9.8-46.3-46.2-74.6-97.1-74.6h-1.4c-71.7,0-116.3,56.6-116.3,147.7
		c0,92.5,43.5,147.7,116.2,147.7c50.3,0,86.4-25.8,98-69.7l85.1,0.5C4403.1,773.7,4341.9,844.2,4230.9,844.2z"/>
	<path class="st0" d="M5105.7,844.2c-106.3-0.3-167.6-46.9-173.8-131.5h80.3c6.8,41.2,40.6,65.4,92.3,65.4c49.2,0,81.5-23,82.3-58.6
		c-0.9-38.1-39.5-51.9-81.2-61.3l-46.8-11.1c-77.9-18.1-115.7-55.1-115.7-112.9c-0.1-31.4,11.3-59.5,33-81.3
		c29.6-29.7,75.9-46.1,130.2-46.1c91.5,0,152.6,45.7,158.9,117.3h-80.6c-7.1-33.1-35.4-51.8-79-51.8c-55.2,0-75.2,28.1-75.5,54.4
		c-0.9,39.6,42.5,53.6,75.1,60.6l38.7,9.2c84.8,18.5,127.8,59.9,128,122.8C5271.7,798.4,5211.1,843.9,5105.7,844.2z"/>
	<polygon class="st0" points="1753.1,838.1 1635.5,468.9 1517.9,838.1 1429,838.1 1573.5,413 1697.5,413 1841.3,838.1 	"/>
	<polygon class="st0" points="4796.6,838.1 4679.1,468.9 4561.5,838.1 4472.6,838.1 4617.1,413 4741.1,413 4885,838.1 	"/>
	<path class="st0" d="M2785.1,838.1V413h171.8c47.1,0,86.2,14.3,113.2,41.4c25.2,25.3,38.4,60.3,38.3,101.4
		c0.1,40.8-12.9,75.4-37.7,100.3c-27.4,27.5-67.8,42-116.9,42h-24.3v-61.8h5.2c53.7,0,86.6-30.8,86.6-80.4
		c0-49.6-32.4-79.2-86.6-79.2h-66.3v1.5l-0.6,10.7v349.2H2785.1z"/>
	<polygon class="st0" points="3764.1,844.2 3764.1,490.7 3846.9,534.8 3846.9,844.2 	"/>
	<rect x="3628.4" y="413" class="st0" width="354.1" height="64.2"/>
	<polygon class="st0" points="5468.1,844.2 5468.1,490.7 5550.8,534.8 5550.8,844.2 	"/>
	<rect x="5332.4" y="413" class="st0" width="354.1" height="64.2"/>
	<g>
		<path class="st0" d="M3555.1,492.5l-52,52c37.6,57.5,31.1,135.4-19.4,185.9c-50.5,50.5-128.4,57-186,19.3l-52,52
			c86.6,65.5,210.3,59,289.3-19.9C3614.2,702.8,3620.7,579.1,3555.1,492.5z"/>
		<path class="st0" d="M3254.6,706.5c-37.6-57.5-31.2-135.4,19.4-185.9c50.5-50.5,128.4-57,185.9-19.3l52-52
			c-86.6-65.5-210.3-59-289.3,19.9c-79,79-85.4,202.7-19.9,289.3L3254.6,706.5z"/>
	</g>
</g>
</svg>
