<?xml version="1.0" encoding="utf-8"?>
<!-- Generator: Adobe Illustrator 23.1.0, SVG Export Plug-In . SVG Version: 6.00 Build 0)  -->
<svg version="1.1" id="katman_1" xmlns="http://www.w3.org/2000/svg" xmlns:xlink="http://www.w3.org/1999/xlink" x="0px" y="0px"
	 viewBox="0 0 5831.9 1144.1" style="enable-background:new 0 0 5831.9 1144.1;" xml:space="preserve">
<style type="text/css">
	.st0{display:none;}
	.st1{display:inline;fill:#F01463;}
	.st2{display:none;fill:#F01463;}
	.st3{fill:#FFFFFF;}
	.st4{font-family:'Anurati-Regular';}
	.st5{font-size:742.0997px;}
</style>
<g class="st0">
	<path class="st1" d="M876.2,851.4"/>
</g>
<polyline class="st2" points="457.1,929.2 143.6,748.3 143.6,380.7 363.2,253.9 363.2,611.4 183.5,725 249,761.7 430.7,642.7 
	430.7,214.9 457.1,199.8 457.1,121.8 76.1,341.7 76.1,787.3 457.1,1007.2 "/>
<polyline class="st2" points="495.3,1007.2 876.2,787.3 876.2,341.7 495.3,121.8 495.3,199.8 521.6,214.9 521.6,642.7 703.3,761.7 
	768.8,725 589.1,611.4 589.1,253.9 808.7,380.7 808.7,748.3 495.3,929.2 "/>
<text transform="matrix(1 0 0 1 881.2451 887.3994)" class="st3 st4 st5">STUDI GATE</text>
</svg>
